# AST/ASF file generated using VICON BodyLanguage
# -----------------------------------------------
:version 1.10
:name VICON
:units
  mass 1.0
  length 0.45
  angle deg
:documentation
   .ast/.asf automatically generated from VICON data using
   VICON BodyBuilder and BodyLanguage model FoxedUp or BRILLIANT.MOD
:root
   order TX TY TZ RX RY RZ
   axis XYZ
   position 0 0 0  
   orientation 0 0 0 
:bonedata
  begin
     id 1 
     name lhipjoint
     direction 0.584852 -0.759097 0.285867 
     length 2.43633 
     axis 0 0 0  XYZ
  end
  begin
     id 2 
     name lfemur
     direction 0.34202 -0.939693 0  
     length 7.14704  
     axis 0 0 20  XYZ
    dof rx ry rz
    limits (-160.0 20.0)
           (-70.0 70.0)
           (-60.0 70.0)
  end
  begin
     id 3 
     name ltibia
     direction 0.342022 -0.939692 0   
     length 7.68483   
     axis 0 0 20   XYZ
    dof rx
    limits (-10.0 170.0)
  end
  begin
     id 4 
     name lfoot
     direction 0.0999605 -0.274639 0.956337   
     length 2.40452   
     axis -90 7.62852e-016 20   XYZ
    dof rx rz
    limits (-45.0 90.0)
           (-70.0 20.0)
  end
  begin
     id 5 
     name ltoes
     direction 1.53468e-011 -4.21881e-011 1   
     length 1.19837   
     axis -90 7.62852e-016 20   XYZ
    dof rx
    limits (-90.0 20.0)
  end
  begin
     id 6 
     name rhipjoint
     direction -0.569886 -0.769002 0.289597   
     length 2.40495  
     axis 0 0 0  XYZ 
  end
  begin
     id 7 
     name rfemur
     direction -0.34202 -0.939693 0   
     length 7.45086   
     axis 0 0 -20   XYZ
    dof rx ry rz
    limits (-160.0 20.0)
           (-70.0 70.0)
           (-70.0 60.0)
  end
  begin
     id 8 
     name rtibia
     direction -0.34202 -0.939693 0   
     length 7.76831   
     axis 0 0 -20   XYZ
    dof rx
    limits (-10.0 170.0)
 end
 begin
     id 9 
     name rfoot
     direction -0.0798572 -0.219406 0.97236   
     length 2.35911  
     axis -90 -7.62852e-016 -20   XYZ
    dof rx rz
    limits (-45.0 90.0)
           (-20.0 70.0)
  end
  begin
     id 10 
     name rtoes
     direction -1.53469e-011 -4.21728e-011 1   
     length 1.18261   
     axis -90 -7.62852e-016 -20   XYZ
    dof rx
    limits (-90.0 20.0)
  end
  begin
     id 11 
     name lowerback
     direction 0.0242088 0.999437 0.0232389   
     length 2.1561   
     axis 0 0 0   XYZ
    dof rx ry rz
    limits (-20.0 45.0)
           (-30.0 30.0)
           (-30.0 30.0)
  end
  begin
     id 12 
     name upperback
     direction -0.0356893 0.999013 -0.0264323   
     length 2.14431   
     axis 0 0 0   XYZ
    dof rx ry rz
    limits (-20.0 45.0)
           (-30.0 30.0)
           (-30.0 30.0)
  end
  begin
     id 13 
     name thorax
     direction -0.0472163 0.998194 -0.0371284   
     length 2.16169   
     axis 0 0 0   XYZ
    dof rx ry rz
    limits (-20.0 45.0)
           (-30.0 30.0)
           (-30.0 30.0)
  end
  begin
     id 14 
     name lowerneck
     direction 0.00863244 0.999921 0.00911972   
     length 1.58651   
     axis 0 0 0   XYZ
    dof rx ry rz
    limits (-20.0 45.0)
           (-30.0 30.0)
           (-30.0 30.0)
  end
  begin
     id 15 
     name upperneck
     direction 0.149523 0.979068 -0.138086   
     length 1.57486   
     axis 0 0 0   XYZ
    dof rx ry rz
    limits (-20.0 45.0)
           (-30.0 30.0)
           (-30.0 30.0)
  end
  begin
     id 16
     name head
     direction 0.0445219 0.997708 -0.0509576  
     length 1.6019  
     axis 0 0 0   XYZ
    dof rx ry rz
    limits (-20.0 45.0)
           (-30.0 30.0)
           (-30.0 30.0)
  end
  begin
     id 17 
     name lclavicle
     direction 0.911271 0.381667 -0.154644  
     length 3.80848  
     axis 0 0 0   XYZ
    dof ry rz
    limits (-20.0 10.0)
           (0.0 20.0)
  end
  begin
     id 18 
     name lhumerus
     direction 1 -4.49003e-011 2.1308e-027   
     length 5.19069   
     axis 180 -30 -90   XYZ
    dof rx ry rz
    limits (-60.0 90.0)
           (-90.0 90.0)
           (-90.0 90.0)
  end
  begin
     id 19
     name lradius
     direction 1 -4.48914e-011 4.01554e-027   
     length 3.30016   
     axis 180 -30 -90   XYZ
    dof rx
    limits (-10.0 170.0)
  end
  begin
     id 20
     name lwrist
     direction 1 -4.49003e-011 1.1934e-026   
     length 1.65008   
     axis -8.46377e-015 90 90   XYZ
    dof ry
    limits (-180.0 0.0)
 end
  begin
     id 21 
     name lhand
     direction 1 -4.49034e-011 2.38659e-026   
     length 0.707698   
     axis -1.52313e-014 90 90   XYZ
    dof rx rz
    limits (-90.0 90.0)
           (-45.0 45.0)
  end
  begin
     id 22 
     name lfingers
     direction 1 -4.48691e-011 4.77775e-026   
     length 0.570564   
     axis -3.04623e-014 90 90   XYZ
    dof rx
    limits (0.0 90.0)
  end
  begin
     id 23
     name lthumb
     direction 0.707107 -6.34832e-011 0.707107   
     length 0.819219   
     axis -90 45 -1.62303e-014   XYZ
    dof rx rz
    limits (-45.0 45.0)
           (-45.0 45.0)
  end
  begin
     id 24 
     name rclavicle
     direction -0.815579 0.573708 -0.0754329   
     length 3.54371  
     axis 0 0 0   XYZ 
    dof ry rz
    limits (-10.0 20.0)
           (-20.0 0.0)
  end
  begin
     id 25 
     name rhumerus
     direction -1 -4.48956e-011 3.05351e-028  
     length 5.23924   
     axis 180 30 90   XYZ
    dof rx ry rz
    limits (-90.0 60.0)
           (-90.0 90.0)
           (-90.0 90.0)
  end
  begin
     id 26 
     name rradius
     direction -1 -4.49013e-011 3.53849e-027   
     length 3.32953   
     axis 180 30 90   XYZ
    dof rx
    limits (-10.0 170.0)
  end
  begin
     id 27 
     name rwrist
     direction -1 -4.48901e-011 1.19374e-026   
     length 1.66477   
     axis -8.46377e-015 -90 -90   XYZ
    dof ry
    limits (-180.0 0.0)
  end
  begin
     id 28
     name rhand
     direction -1 -4.48877e-011 2.38764e-026   
     length 0.607414   
     axis -1.52313e-014 -90 -90   XYZ
    dof rx rz
    limits (-90.0 90.0)
           (-45.0 45.0)
  end
  begin
     id 29
     name rfingers
     direction -1 -4.48882e-011 4.77521e-026   
     length 0.489712   
     axis -3.04623e-014 -90 -90   XYZ
    dof rx
    limits (0.0 90.0)
  end
  begin
     id 30
     name rthumb
     direction -0.707107 -6.34974e-011 0.707107   
     length 0.703132   
     axis -90 -45 1.62303e-014   XYZ
    dof rx rz
    limits (-45.0 45.0)
           (-45.0 45.0)
  end
:hierarchy
  begin
    root lhipjoint rhipjoint lowerback
    lhipjoint lfemur
    lfemur ltibia
    ltibia lfoot
    lfoot ltoes
    rhipjoint rfemur
    rfemur rtibia
    rtibia rfoot
    rfoot rtoes
    lowerback upperback
    upperback thorax
    thorax lowerneck lclavicle rclavicle
    lowerneck upperneck
    upperneck head
    lclavicle lhumerus
    lhumerus lradius
    lradius lwrist
    lwrist lhand lthumb
    lhand lfingers
    rclavicle rhumerus
    rhumerus rradius
    rradius rwrist
    rwrist rhand rthumb
    rhand rfingers
  end

#!OML:ASF E:\VariousWalksJay\Project 1\Capture day 1\Session 1\Actor2.ASF
:FULLY-SPECIFIED
:DEGREES
98
root 9.34255 16.8356 40.9343 177.776 -57.2685 -172.259
lowerback -1.24759 0.362352 5.74022
upperback 5.07812 0.132184 -0.502073
thorax 6.02004 0.304208 -3.73986
lowerneck -8.95964 1.84907 1.84099
upperneck 0.135756 1.90264 6.18362
head 1.53194 1.02435 1.72016
rclavicle -1.03964e-013 3.4191e-014
rhumerus -79.379 53.0215 -115.021
rradius 84.6796
rwrist 14.1094
rhand -43.0907 27.9603
rfingers 7.12502
rthumb -15.9457 -1.40327
lclavicle -1.03964e-013 3.4191e-014
lhumerus -80.9453 -62.698 113.913
lradius 84.7502
lwrist 1.63067
lhand -22.3481 -39.7348
lfingers 7.12502
lthumb 4.0726 -9.79401
rfemur -11.6584 -8.42397 26.3688
rtibia 30.7496
rfoot -25.8012 -16.6777
rtoes 0.0800671
lfemur -24.6046 15.3237 -19.1928
ltibia 30.9455
lfoot -15.278 21.3354
ltoes 1.30543
99
root 9.38709 16.8332 40.9346 177.84 -57.3879 -172.276
lowerback -1.21188 0.371587 5.80266
upperback 5.09695 0.138272 -0.435326
thorax 6.02087 0.308038 -3.70458
lowerneck -9.01864 1.81893 1.5476
upperneck 0.168105 1.88696 6.32306
head 1.55141 1.02166 1.81783
rclavicle 8.71671e-014 -3.93594e-014
rhumerus -78.9527 52.7723 -114.556
rradius 84.4989
rwrist 14.3281
rhand -42.62 28.5734
rfingers 7.12502
rthumb -15.4924 -0.825891
lclavicle 8.71671e-014 -3.93594e-014
lhumerus -80.9025 -62.6158 113.915
lradius 84.728
lwrist 1.59204
lhand -23.6085 -41.7388
lfingers 7.12502
lthumb 2.85546 -11.7782
rfemur -11.907 -8.57241 26.4532
rtibia 30.8714
rfoot -25.837 -16.5848
rtoes 0.28195
lfemur -24.8951 15.5882 -19.2093
ltibia 31.0874
lfoot -15.2761 20.9004
ltoes 0.937494
100
root 9.42855 16.8282 40.9428 177.966 -57.5485 -172.391
lowerback -1.14497 0.328571 5.87255
upperback 5.12441 0.0765936 -0.3928
thorax 6.00583 0.278802 -3.70327
lowerneck -8.98015 1.81935 1.57665
upperneck 0.0898918 1.89643 6.19253
head 1.51929 1.02152 1.7687
rclavicle -3.02153e-014 2.54444e-014
rhumerus -79.3854 53.0952 -114.883
rradius 84.7658
rwrist 14.1638
rhand -42.9575 28.1396
rfingers 7.12502
rthumb -15.8174 -1.2342
lclavicle -3.02153e-014 2.54444e-014
lhumerus -80.7276 -62.4238 113.753
lradius 84.7242
lwrist 1.53929
lhand -23.3059 -41.5335
lfingers 7.12502
lthumb 3.14773 -11.577
rfemur -12.1723 -8.94102 26.4329
rtibia 31.0144
rfoot -25.85 -16.28
rtoes 0.655576
lfemur -25.1875 15.6875 -19.3053
ltibia 31.251
lfoot -15.3878 20.6176
ltoes 0.282508
101
root 9.47135 16.8248 40.955 178.005 -57.6606 -172.291
lowerback -1.1026 0.340625 6.12629
upperback 5.0959 0.0846978 -0.367551
thorax 5.95606 0.292387 -3.81884
lowerneck -8.94946 1.79167 1.73014
upperneck 0.122122 1.84568 6.11557
head 1.52669 0.995492 1.71482
rclavicle -2.62396e-014 6.36111e-015
rhumerus -78.8634 52.7026 -114.396
rradius 84.5765
rwrist 14.5212
rhand -43.0894 28.0996
rfingers 7.12502
rthumb -15.9444 -1.26409
lclavicle -2.62396e-014 6.36111e-015
lhumerus -80.6991 -62.3752 113.745
lradius 84.6741
lwrist 1.52678
lhand -23.7158 -41.7079
lfingers 7.12502
lthumb 2.75185 -11.7459
rfemur -12.5519 -8.88907 26.5779
rtibia 31.1783
rfoot -25.9301 -16.2911
rtoes 1.06981
lfemur -25.6176 15.8046 -19.3021
ltibia 31.4789
lfoot -15.696 20.342
ltoes -0.257535
102
root 9.51188 16.8183 40.9505 178.003 -57.8423 -172.349
lowerback -1.06323 0.329228 6.07856
upperback 5.1758 0.0620476 -0.280638
thorax 6.01494 0.277901 -3.70239
lowerneck -9.02442 1.76555 1.60101
upperneck 0.154937 1.82167 6.12241
head 1.55064 0.986397 1.74048
rclavicle -1.25731e-013 4.25399e-014
rhumerus -79.3916 53.0497 -114.725
rradius 84.9901
rwrist 14.28
rhand -42.458 28.4099
rfingers 7.12502
rthumb -15.3363 -1.00137
lclavicle -1.25731e-013 4.25399e-014
lhumerus -80.5131 -62.2951 113.644
lradius 84.6395
lwrist 1.48317
lhand -23.5266 -41.7543
lfingers 7.12502
lthumb 2.93452 -11.7947
rfemur -12.6945 -9.09731 26.626
rtibia 31.3633
rfoot -26.0451 -16.1957
rtoes 1.20642
lfemur -25.8352 16.173 -19.3377
ltibia 31.733
lfoot -15.8219 19.8356
ltoes -1.47122
103
root 9.54982 16.8112 40.9662 178.03 -57.9787 -172.288
lowerback -1.00139 0.323788 6.34454
upperback 5.15947 0.0462389 -0.249294
thorax 5.96448 0.279888 -3.81988
lowerneck -8.95834 1.74544 1.80433
upperneck 0.151844 1.78292 5.95973
head 1.54027 0.963479 1.64949
rclavicle 1.87852e-014 4.17448e-015
rhumerus -78.9588 52.6881 -114.284
rradius 84.798
rwrist 14.5774
rhand -43.0122 28.04
rfingers 7.12502
rthumb -15.8701 -1.32969
lclavicle 1.87852e-014 4.17448e-015
lhumerus -80.4972 -62.2301 113.67
lradius 84.5944
lwrist 1.43471
lhand -23.685 -41.5971
lfingers 7.12502
lthumb 2.78153 -11.6355
rfemur -13.0491 -9.51848 26.6971
rtibia 31.5438
rfoot -25.9594 -15.9288
rtoes 1.18077
lfemur -26.2385 16.1595 -19.3497
ltibia 32.0284
lfoot -15.9161 19.5954
ltoes -2.60086
104
root 9.58923 16.8059 40.9722 177.981 -58.0695 -172.241
lowerback -0.877084 0.348708 6.4898
upperback 5.1695 0.0769281 -0.195643
thorax 5.90955 0.297909 -3.84324
lowerneck -9.07561 1.6752 1.55365
upperneck 0.293952 1.70201 6.09601
head 1.6081 0.932565 1.73844
rclavicle 1.25731e-014 5.96354e-015
rhumerus -79.0555 52.6451 -114.253
rradius 84.9602
rwrist 14.6558
rhand -42.6786 28.3459
rfingers 7.12502
rthumb -15.5488 -1.04904
lclavicle 1.25731e-014 5.96354e-015
lhumerus -80.5761 -62.1866 113.73
lradius 84.6365
lwrist 1.39064
lhand -23.4316 -41.6887
lfingers 7.12502
lthumb 3.02629 -11.7304
rfemur -13.2684 -9.47001 26.8007
rtibia 31.7413
rfoot -26.1009 -15.9634
rtoes 1.57236
lfemur -26.5304 16.3168 -19.3025
ltibia 32.3716
lfoot -15.9893 19.069
ltoes -3.61282
105
root 9.62677 16.8007 40.9684 177.934 -58.2651 -172.267
lowerback -0.811979 0.316747 6.43964
upperback 5.20941 0.0331582 -0.131297
thorax 5.90846 0.271532 -3.75019
lowerneck -8.89463 1.67285 1.92209
upperneck 0.240056 1.68102 5.82006
head 1.56097 0.913381 1.58006
rclavicle 1.19271e-015 -9.93923e-016
rhumerus -79.1953 52.7276 -114.321
rradius 85.0614
rwrist 14.6001
rhand -42.4814 28.4752
rfingers 7.12502
rthumb -15.3589 -0.934373
lclavicle 1.19271e-015 -9.93923e-016
lhumerus -80.603 -62.1075 113.771
lradius 84.5905
lwrist 1.39322
lhand -23.6166 -41.6148
lfingers 7.12502
lthumb 2.84766 -11.6541
rfemur -13.383 -9.45986 26.8752
rtibia 31.926
rfoot -26.2641 -16.1001
rtoes 1.86711
lfemur -26.7875 16.6288 -19.2904
ltibia 32.7646
lfoot -15.9046 18.189
ltoes -4.70829
106
root 9.6616 16.7935 40.9829 177.817 -58.3926 -172.112
lowerback -0.731356 0.332513 6.71349
upperback 5.24252 0.0403134 -0.057463
thorax 5.90289 0.285055 -3.82609
lowerneck -9.1517 1.59003 1.48847
upperneck 0.4395 1.59101 6.05408
head 1.67202 0.883272 1.73522
rclavicle -9.88954e-015 6.16232e-015
rhumerus -78.7661 52.3822 -113.837
rradius 84.9559
rwrist 14.9016
rhand -43.0009 28.0785
rfingers 7.12502
rthumb -15.8592 -1.29202
lclavicle -9.88954e-015 6.16232e-015
lhumerus -80.5354 -62.1063 113.77
lradius 84.6266
lwrist 1.35583
lhand -23.4782 -41.4776
lfingers 7.12502
lthumb 2.98125 -11.5187
rfemur -13.6474 -9.91882 26.9886
rtibia 32.0768
rfoot -26.1386 -15.8428
rtoes 1.67563
lfemur -27.1413 16.5609 -19.1675
ltibia 33.2146
lfoot -16.0516 17.5013
ltoes -5.25987
107
root 9.69453 16.7895 40.988 177.764 -58.4864 -172.079
lowerback -0.696719 0.290796 6.7758
upperback 5.27633 -0.0243817 0.0282933
thorax 5.91226 0.253204 -3.77487
lowerneck -8.99894 1.60202 1.69626
upperneck 0.421735 1.59994 5.87733
head 1.63969 0.882402 1.63905
rclavicle 6.5102e-015 9.34288e-015
rhumerus -79.196 52.6928 -114.068
rradius 85.1738
rwrist 14.8111
rhand -42.8283 28.4486
rfingers 7.12502
rthumb -15.693 -0.93501
lclavicle 6.5102e-015 9.34288e-015
lhumerus -80.2795 -61.9764 113.705
lradius 84.4884
lwrist 1.49893
lhand -23.6633 -41.4593
lfingers 7.12502
lthumb 2.80251 -11.498
rfemur -13.7953 -10.0576 27.0598
rtibia 32.1894
rfoot -26.1514 -15.7896
rtoes 1.86025
lfemur -27.4516 16.6709 -19.0738
ltibia 33.7353
lfoot -15.8107 16.6061
ltoes -6.97673
108
root 9.73061 16.7902 40.9869 177.74 -58.5826 -172.178
lowerback -0.554052 0.340372 6.72696
upperback 5.31376 0.0494109 0.0424739
thorax 5.87804 0.285324 -3.72828
lowerneck -8.996 1.52275 1.74151
upperneck 0.511204 1.48313 5.92976
head 1.67139 0.828079 1.64467
rclavicle -5.72997e-014 2.16675e-014
rhumerus -79.1961 52.4825 -113.988
rradius 85.2601
rwrist 14.885
rhand -42.8666 28.3788
rfingers 7.12502
rthumb -15.7299 -1.00197
lclavicle -5.72997e-014 2.16675e-014
lhumerus -80.4521 -62.0951 113.859
lradius 84.4998
lwrist 1.52791
lhand -23.5003 -41.4458
lfingers 7.12502
lthumb 2.95998 -11.4866
rfemur -13.8239 -10.0166 27.0799
rtibia 32.2896
rfoot -26.2233 -15.9269
rtoes 1.90351
lfemur -27.6236 16.6534 -18.9188
ltibia 34.3093
lfoot -15.7871 15.4292
ltoes -8.17751
109
root 9.76201 16.7863 41.0009 177.406 -58.6102 -171.816
lowerback -0.437254 0.333694 7.07595
upperback 5.31196 0.0286997 0.134243
thorax 5.81264 0.285409 -3.82893
lowerneck -8.88262 1.53209 1.75589
upperneck 0.559182 1.49826 5.92792
head 1.6665 0.836097 1.64113
rclavicle 1.81391e-014 1.12313e-014
rhumerus -79.4153 52.6427 -114.107
rradius 85.37
rwrist 14.809
rhand -43.0664 28.1508
rfingers 7.12502
rthumb -15.9223 -1.21467
lclavicle 1.81391e-014 1.12313e-014
lhumerus -80.4174 -61.9631 113.872
lradius 84.471
lwrist 1.53416
lhand -23.9613 -41.7509
lfingers 7.12502
lthumb 2.51471 -11.786
rfemur -13.97 -9.94518 27.3269
rtibia 32.3642
rfoot -26.2398 -15.9994
rtoes 2.21217
lfemur -27.85 16.2004 -18.4584
ltibia 34.9222
lfoot -15.8758 14.2773
ltoes -9.47265
110
root 9.79071 16.779 41.0009 177.116 -58.6841 -171.66
lowerback -0.338143 0.356947 7.17262
upperback 5.38269 0.0522695 0.195876
thorax 5.83595 0.299962 -3.8172
lowerneck -8.95097 1.4591 1.55658
upperneck 0.73041 1.40644 6.09164
head 1.73644 0.800106 1.72914
rclavicle -2.21645e-014 -5.66536e-015
rhumerus -79.5732 52.7042 -114.166
rradius 85.5364
rwrist 14.7478
rhand -42.7369 28.8568
rfingers 7.12502
rthumb -15.605 -0.533707
lclavicle -2.21645e-014 -5.66536e-015
lhumerus -80.3964 -61.9619 113.855
lradius 84.4804
lwrist 1.50563
lhand -23.7282 -41.8516
lfingers 7.12502
lthumb 2.7399 -11.8894
rfemur -13.9441 -10.038 27.4477
rtibia 32.4517
rfoot -26.2885 -15.9789
rtoes 2.30514
lfemur -27.9042 15.9208 -18.0701
ltibia 35.5642
lfoot -16.0043 12.7238
ltoes -10.1452
111
root 9.82124 16.7722 40.9987 176.901 -58.7183 -171.66
lowerback -0.147561 0.361703 7.10206
upperback 5.46788 0.0613135 0.278285
thorax 5.81708 0.296719 -3.69083
lowerneck -8.84727 1.41919 1.71329
upperneck 0.76265 1.34133 6.03792
head 1.73049 0.766556 1.68038
rclavicle 6.72638e-014 1.35174e-014
rhumerus -79.226 52.4544 -113.814
rradius 85.3406
rwrist 14.9732
rhand -42.8404 28.519
rfingers 7.12502
rthumb -15.7046 -0.863756
lclavicle 6.72638e-014 1.35174e-014
lhumerus -80.3208 -61.8349 113.751
lradius 84.6019
lwrist 1.4708
lhand -23.7561 -41.6824
lfingers 7.12502
lthumb 2.71288 -11.7199
rfemur -13.8319 -9.88991 27.5019
rtibia 32.5618
rfoot -26.4395 -16.1588
rtoes 2.33577
lfemur -27.8761 15.7263 -17.7405
ltibia 36.2391
lfoot -15.9587 11.0474
ltoes -10.9873
